<?xml version="1.0" encoding="UTF-8"?> <!-- Generator: Adobe Illustrator 24.3.0, SVG Export Plug-In . SVG Version: 6.00 Build 0) --> <svg xmlns="http://www.w3.org/2000/svg" xmlns:xlink="http://www.w3.org/1999/xlink" id="Capa_1" x="0px" y="0px" viewBox="0 0 65.6 55.7" style="enable-background:new 0 0 65.6 55.7;" xml:space="preserve"> <style type="text/css"> .st0{enable-background:new ;} .st1{fill:url(#SVGID_1_);} .st2{fill:url(#SVGID_2_);} </style> <g class="st0"> <linearGradient id="SVGID_1_" gradientUnits="userSpaceOnUse" x1="22.4968" y1="46.4325" x2="22.4968" y2="10.6297"> <stop offset="7.000000e-02" style="stop-color:#F6CE77"></stop> <stop offset="0.49" style="stop-color:#F5E397"></stop> <stop offset="1" style="stop-color:#FDF3B9"></stop> </linearGradient> <path class="st1" d="M14.1,19.4c0-5.6,3-8.8,8.4-8.8c5.4,0,8.4,3.2,8.4,8.8v18.2c0,5.6-3,8.8-8.4,8.8c-5.4,0-8.4-3.2-8.4-8.8V19.4z M19.6,38c0,2.5,1.1,3.5,2.9,3.5c1.8,0,2.9-1,2.9-3.5V19.1c0-2.5-1.1-3.5-2.9-3.5c-1.8,0-2.9,1-2.9,3.5V38z"></path> <linearGradient id="SVGID_2_" gradientUnits="userSpaceOnUse" x1="42.2966" y1="46.4325" x2="42.2966" y2="10.6297"> <stop offset="7.000000e-02" style="stop-color:#F6CE77"></stop> <stop offset="0.49" style="stop-color:#F5E397"></stop> <stop offset="1" style="stop-color:#FDF3B9"></stop> </linearGradient> <path class="st2" d="M45,19.6c0-3.2-1.1-4-2.9-4s-2.9,1-2.9,3.5v2.3h-5.2v-1.9c0-5.6,2.8-8.8,8.2-8.8c5.4,0,8.2,3.2,8.2,8.8v0.9 c0,3.8-1.2,6.1-3.9,7.2c2.8,1.2,3.9,3.8,3.9,7.4v2.8c0,5.6-2.8,8.8-8.2,8.8c-5.4,0-8.2-3.2-8.2-8.8v-2.9h5.2V38 c0,2.5,1.1,3.5,2.9,3.5s2.9-0.8,2.9-4v-2.8c0-3.3-1.1-4.5-3.6-4.5h-1.9v-5h2.2c2,0,3.3-0.9,3.3-3.7V19.6z"></path> </g> </svg> 