<?xml version="1.0" encoding="UTF-8"?> <!-- Generator: Adobe Illustrator 24.3.0, SVG Export Plug-In . SVG Version: 6.00 Build 0) --> <svg xmlns="http://www.w3.org/2000/svg" xmlns:xlink="http://www.w3.org/1999/xlink" id="Capa_1" x="0px" y="0px" viewBox="0 0 65.6 55.7" style="enable-background:new 0 0 65.6 55.7;" xml:space="preserve"> <style type="text/css"> .st0{opacity:0.6;fill-rule:evenodd;clip-rule:evenodd;fill:url(#SVGID_1_);enable-background:new ;} </style> <linearGradient id="SVGID_1_" gradientUnits="userSpaceOnUse" x1="123.4038" y1="323.2632" x2="123.4038" y2="324.2632" gradientTransform="matrix(35.901 0 0 -35.802 -4398.3511 11620.0186)"> <stop offset="7.000000e-02" style="stop-color:#F6CE77"></stop> <stop offset="0.49" style="stop-color:#F5E397"></stop> <stop offset="1" style="stop-color:#FDF3B9"></stop> </linearGradient> <path class="st0" d="M44.4,46.1V19.4h-4.3v-3.9c4.3,0,5.2-2,6.1-4.4h3.7v35H44.4z M22.4,46.5c-5.4,0-8.4-3.2-8.4-8.8V19.5 c0-5.6,3-8.8,8.4-8.8s8.3,3.2,8.3,8.8v18.2C30.7,43.3,27.8,46.5,22.4,46.5z M25.2,19.2c0-2.5-1.1-3.4-2.8-3.4s-2.9,0.9-2.9,3.4v18.9 c0,2.5,1.1,3.5,2.9,3.5s2.8-1,2.8-3.5V19.2z"></path> </svg> 