<?xml version="1.0" encoding="UTF-8"?> <!-- Generator: Adobe Illustrator 24.3.0, SVG Export Plug-In . SVG Version: 6.00 Build 0) --> <svg xmlns="http://www.w3.org/2000/svg" xmlns:xlink="http://www.w3.org/1999/xlink" id="Capa_1" x="0px" y="0px" viewBox="0 0 65.6 55.7" style="enable-background:new 0 0 65.6 55.7;" xml:space="preserve"> <style type="text/css"> .st0{enable-background:new ;} .st1{fill:url(#SVGID_1_);} .st2{fill:url(#SVGID_2_);} .st3{font-family:'BebasNeueBold';} .st4{font-size:50px;} </style> <g class="st0"> <linearGradient id="SVGID_1_" gradientUnits="userSpaceOnUse" x1="22.4968" y1="46.4325" x2="22.4968" y2="10.6297"> <stop offset="7.000000e-02" style="stop-color:#F6CE77"></stop> <stop offset="0.49" style="stop-color:#F5E397"></stop> <stop offset="1" style="stop-color:#FDF3B9"></stop> </linearGradient> <path class="st1" d="M14.1,19.4c0-5.6,3-8.8,8.4-8.8c5.4,0,8.4,3.2,8.4,8.8v18.2c0,5.6-3,8.8-8.4,8.8c-5.4,0-8.4-3.2-8.4-8.8V19.4z M19.6,38c0,2.5,1.1,3.5,2.9,3.5c1.8,0,2.9-1,2.9-3.5V19.1c0-2.5-1.1-3.5-2.9-3.5c-1.8,0-2.9,1-2.9,3.5V38z"></path> <linearGradient id="SVGID_2_" gradientUnits="userSpaceOnUse" x1="42.3967" y1="46.0321" x2="42.3967" y2="11.0301"> <stop offset="7.000000e-02" style="stop-color:#F6CE77"></stop> <stop offset="0.49" style="stop-color:#F5E397"></stop> <stop offset="1" style="stop-color:#FDF3B9"></stop> </linearGradient> <path class="st2" d="M33.1,34.7l10-23.7h6v23.7h2.6v5h-2.6V46h-5.4v-6.4H33.1V34.7z M43.7,34.7V21.5l-5.6,13.2H43.7z"></path> </g> <text transform="matrix(1 0 0 1 -3.4037 97.0319)" class="st3 st4">02</text> </svg> 