<?xml version="1.0" encoding="UTF-8"?> <!-- Generator: Adobe Illustrator 24.3.0, SVG Export Plug-In . SVG Version: 6.00 Build 0) --> <svg xmlns="http://www.w3.org/2000/svg" xmlns:xlink="http://www.w3.org/1999/xlink" id="Capa_1" x="0px" y="0px" viewBox="0 0 65.6 55.7" style="enable-background:new 0 0 65.6 55.7;" xml:space="preserve"> <style type="text/css"> .st0{enable-background:new ;} .st1{fill:url(#SVGID_1_);} .st2{fill:url(#SVGID_2_);} </style> <g class="st0"> <linearGradient id="SVGID_1_" gradientUnits="userSpaceOnUse" x1="22.299" y1="46.8027" x2="22.299" y2="11"> <stop offset="7.000000e-02" style="stop-color:#F6CE77"></stop> <stop offset="0.49" style="stop-color:#F5E397"></stop> <stop offset="1" style="stop-color:#FDF3B9"></stop> </linearGradient> <path class="st1" d="M13.9,19.8c0-5.6,3-8.8,8.4-8.8c5.4,0,8.4,3.2,8.4,8.8V38c0,5.6-3,8.8-8.4,8.8c-5.4,0-8.4-3.2-8.4-8.8V19.8z M19.4,38.4c0,2.5,1.1,3.5,2.9,3.5c1.8,0,2.9-1,2.9-3.5V19.5c0-2.5-1.1-3.5-2.9-3.5c-1.8,0-2.9,1-2.9,3.5V38.4z"></path> <linearGradient id="SVGID_2_" gradientUnits="userSpaceOnUse" x1="42.3991" y1="46.4023" x2="42.3991" y2="11"> <stop offset="7.000000e-02" style="stop-color:#F6CE77"></stop> <stop offset="0.49" style="stop-color:#F5E397"></stop> <stop offset="1" style="stop-color:#FDF3B9"></stop> </linearGradient> <path class="st2" d="M42.2,16c-1.8,0-2.9,1-2.9,3.5v3.8h-5.2v-3.4c0-5.6,2.8-8.8,8.2-8.8s8.2,3.2,8.2,8.8c0,11-11,15.1-11,20.9 c0,0.3,0,0.5,0,0.8h10.4v5H34.2v-4.3c0-10.3,10.9-12,10.9-22.1C45.1,16.9,44,16,42.2,16z"></path> </g> </svg> 