<?xml version="1.0" encoding="UTF-8"?> <!-- Generator: Adobe Illustrator 24.3.0, SVG Export Plug-In . SVG Version: 6.00 Build 0) --> <svg xmlns="http://www.w3.org/2000/svg" xmlns:xlink="http://www.w3.org/1999/xlink" id="Слой_1" x="0px" y="0px" viewBox="0 0 22.5 29.9" style="enable-background:new 0 0 22.5 29.9;" xml:space="preserve"> <style type="text/css"> .st0{fill-rule:evenodd;clip-rule:evenodd;fill:url(#SVGID_1_);} </style> <linearGradient id="SVGID_1_" gradientUnits="userSpaceOnUse" x1="-207.2213" y1="268.9383" x2="-207.2213" y2="267.9383" gradientTransform="matrix(18 0 0 -26 3741.2119 6994.3667)"> <stop offset="0" style="stop-color:#FF7EBB"></stop> <stop offset="1" style="stop-color:#FF3266"></stop> </linearGradient> <path class="st0" d="M11.2,2c-5,0-9,4.1-9,9c0,6.3,9,17,9,17s9-11,9-17C20.2,6,16.2,2,11.2,2z M13.9,13.7c-0.7,0.8-1.7,1.1-2.7,1.1 s-2-0.4-2.7-1.1C7,12.2,7,9.7,8.5,8.2c0.7-0.7,1.7-1.1,2.7-1.1s2,0.4,2.7,1.1C15.4,9.7,15.4,12.2,13.9,13.7z"></path> </svg> 