<?xml version="1.0" encoding="UTF-8"?> <!-- Generator: Adobe Illustrator 24.3.0, SVG Export Plug-In . SVG Version: 6.00 Build 0) --> <svg xmlns="http://www.w3.org/2000/svg" xmlns:xlink="http://www.w3.org/1999/xlink" id="Слой_1" x="0px" y="0px" viewBox="0 0 22.5 29.9" style="enable-background:new 0 0 22.5 29.9;" xml:space="preserve"> <style type="text/css"> .st0{fill-rule:evenodd;clip-rule:evenodd;fill:url(#SVGID_1_);} </style> <linearGradient id="SVGID_1_" gradientUnits="userSpaceOnUse" x1="-208.7863" y1="264.2995" x2="-208.7863" y2="263.2995" gradientTransform="matrix(20 0 0 -20 4186.9546 5290.9609)"> <stop offset="0" style="stop-color:#FF7EBB"></stop> <stop offset="1" style="stop-color:#FF3266"></stop> </linearGradient> <path class="st0" d="M21.2,20.5c-0.1-0.2-0.4-0.4-1.1-0.8c-0.2-0.1-0.4-0.2-0.8-0.4c-0.3-0.2-0.6-0.3-0.9-0.5 c-0.3-0.2-0.5-0.3-0.8-0.4c0,0-0.2-0.1-0.4-0.2c-0.2-0.1-0.4-0.2-0.5-0.3c-0.1-0.1-0.3-0.1-0.4-0.1c-0.2,0-0.4,0.1-0.7,0.4 c-0.3,0.3-0.5,0.6-0.8,0.9c-0.2,0.3-0.5,0.6-0.8,0.9c-0.3,0.3-0.5,0.4-0.7,0.4c-0.1,0-0.2,0-0.3-0.1c-0.1,0-0.2-0.1-0.3-0.1 c-0.1,0-0.2-0.1-0.3-0.2c-0.2-0.1-0.3-0.2-0.3-0.2C11,19,9.9,18.2,9,17.2c-0.9-0.9-1.8-2-2.5-3.3c0,0-0.1-0.1-0.2-0.3 c-0.1-0.2-0.2-0.3-0.2-0.3C6.1,13.2,6,13.1,6,13c0-0.1-0.1-0.2-0.1-0.3c0-0.2,0.1-0.4,0.4-0.7c0.3-0.3,0.6-0.5,0.9-0.8 c0.3-0.2,0.6-0.5,0.9-0.8c0.3-0.3,0.4-0.5,0.4-0.7c0-0.1,0-0.3-0.1-0.4C8.3,9.2,8.2,9.1,8.1,8.9C8,8.7,7.9,8.6,7.8,8.5 C7.7,8.3,7.6,8,7.4,7.8S7.1,7.2,6.9,6.9C6.7,6.5,6.6,6.3,6.5,6.1C6.2,5.4,5.9,5.1,5.7,5C5.7,5,5.6,5,5.4,5c-0.3,0-0.6,0-1,0.1 C4,5.2,3.7,5.3,3.5,5.4C3,5.6,2.5,6.2,2,7.1C1.5,8,1.2,8.9,1.2,9.8c0,0.3,0,0.5,0,0.7c0,0.2,0.1,0.5,0.2,0.8 c0.1,0.3,0.2,0.5,0.2,0.7c0.1,0.1,0.1,0.4,0.3,0.8s0.2,0.6,0.3,0.7c0.3,0.9,0.7,1.8,1.2,2.5c0.7,1.2,1.8,2.5,3.1,3.8 c1.3,1.3,2.5,2.3,3.8,3.1c0.7,0.5,1.6,0.8,2.5,1.2c0.1,0,0.3,0.1,0.7,0.3c0.4,0.1,0.6,0.2,0.8,0.3c0.1,0.1,0.4,0.1,0.7,0.2 c0.3,0.1,0.6,0.1,0.8,0.2c0.2,0,0.5,0,0.7,0c0.9,0,1.8-0.2,2.6-0.7c1-0.5,1.5-1,1.7-1.5c0.1-0.2,0.2-0.6,0.3-1 c0.1-0.4,0.1-0.7,0.1-1C21.2,20.6,21.2,20.5,21.2,20.5z"></path> </svg> 