<?xml version="1.0" encoding="UTF-8"?> <!-- Generator: Adobe Illustrator 24.3.0, SVG Export Plug-In . SVG Version: 6.00 Build 0) --> <svg xmlns="http://www.w3.org/2000/svg" xmlns:xlink="http://www.w3.org/1999/xlink" id="Layer_1" x="0px" y="0px" viewBox="0 0 24.6 23.5" style="enable-background:new 0 0 24.6 23.5;" xml:space="preserve"> <style type="text/css"> .st0{fill-rule:evenodd;clip-rule:evenodd;fill:url(#SVGID_1_);} </style> <linearGradient id="SVGID_1_" gradientUnits="userSpaceOnUse" x1="-104.7314" y1="70.7614" x2="-104.7314" y2="69.7614" gradientTransform="matrix(20 0 0 -20 2107.2764 1416.7378)"> <stop offset="0" style="stop-color:#FF7EBB"></stop> <stop offset="1" style="stop-color:#FF3266"></stop> </linearGradient> <path  class="st0" d="M22.6,17c-0.1-0.2-0.4-0.4-1.1-0.8c-0.2-0.1-0.4-0.2-0.8-0.4c-0.3-0.2-0.6-0.3-0.9-0.5 c-0.3-0.2-0.5-0.3-0.8-0.4c0,0-0.2-0.1-0.4-0.2c-0.2-0.1-0.4-0.2-0.5-0.3c-0.1-0.1-0.3-0.1-0.4-0.1c-0.2,0-0.4,0.1-0.7,0.4 c-0.3,0.3-0.5,0.6-0.8,0.9c-0.2,0.3-0.5,0.6-0.8,0.9c-0.3,0.3-0.5,0.4-0.7,0.4c-0.1,0-0.2,0-0.3-0.1c-0.1,0-0.2-0.1-0.3-0.1 c-0.1,0-0.2-0.1-0.3-0.2c-0.2-0.1-0.3-0.2-0.3-0.2c-1.3-0.7-2.4-1.5-3.3-2.5c-0.9-0.9-1.8-2-2.5-3.3c0,0-0.1-0.1-0.2-0.3 C7.6,10,7.6,9.9,7.5,9.8c0-0.1-0.1-0.2-0.1-0.3c0-0.1-0.1-0.2-0.1-0.3c0-0.2,0.1-0.4,0.4-0.7C8,8.3,8.3,8.1,8.6,7.8 C9,7.6,9.2,7.3,9.5,7c0.3-0.3,0.4-0.5,0.4-0.7c0-0.1,0-0.3-0.1-0.4C9.8,5.8,9.7,5.6,9.5,5.4C9.4,5.2,9.3,5.1,9.3,5.1 C9.1,4.8,9,4.6,8.8,4.3C8.7,4,8.5,3.7,8.3,3.4C8.1,3.1,8,2.8,7.9,2.6C7.6,2,7.3,1.6,7.2,1.6c-0.1,0-0.2,0-0.3,0c-0.3,0-0.6,0-1,0.1 C5.4,1.7,5.1,1.8,4.9,2c-0.5,0.2-1,0.8-1.5,1.7C2.9,4.6,2.6,5.5,2.6,6.3c0,0.3,0,0.5,0,0.7c0,0.2,0.1,0.5,0.2,0.8 C3,8.2,3,8.4,3.1,8.6C3.1,8.7,3.2,9,3.4,9.4C3.5,9.7,3.6,10,3.6,10C4,11,4.4,11.8,4.8,12.5c0.7,1.2,1.8,2.5,3.1,3.8 c1.3,1.3,2.5,2.3,3.8,3.1c0.7,0.5,1.6,0.8,2.5,1.2c0.1,0,0.3,0.1,0.7,0.3c0.4,0.1,0.6,0.2,0.8,0.3c0.1,0.1,0.4,0.1,0.7,0.2 c0.3,0.1,0.6,0.1,0.8,0.2c0.2,0,0.5,0,0.7,0c0.9,0,1.8-0.2,2.6-0.7c1-0.5,1.5-1,1.7-1.5c0.1-0.2,0.2-0.6,0.3-1 c0.1-0.4,0.1-0.7,0.1-1C22.6,17.2,22.6,17.1,22.6,17z"></path> </svg> 