<?xml version="1.0" encoding="UTF-8"?> <!-- Generator: Adobe Illustrator 24.3.0, SVG Export Plug-In . SVG Version: 6.00 Build 0) --> <svg xmlns="http://www.w3.org/2000/svg" xmlns:xlink="http://www.w3.org/1999/xlink" id="Layer_1" x="0px" y="0px" viewBox="0 0 36.4 36.8" style="enable-background:new 0 0 36.4 36.8;" xml:space="preserve"> <style type="text/css"> .st0{fill-rule:evenodd;clip-rule:evenodd;fill:url(#SVGID_1_);} </style> <linearGradient id="SVGID_1_" gradientUnits="userSpaceOnUse" x1="6" y1="18.101" x2="33" y2="18.101"> <stop offset="0" style="stop-color:#FF7EBB"></stop> <stop offset="1" style="stop-color:#FF3266"></stop> </linearGradient> <path class="st0" d="M33,18c0,10.2-11,16.6-19.9,11.8L6,31.6l1.9-6.9c-1.2-2-1.8-4.3-1.8-6.7c0-11.8,14.3-17.9,23-9.5l0,0 C31.6,11,33,14.4,33,18z M27.4,10.1c-2.1-2.1-4.9-3.3-7.9-3.3c-8.8,0-14.1,9.7-9.5,17l0.3,0.4l-1.1,4.1l4.2-1.1l0.4,0.2 c7.5,4.4,16.9-1,16.9-9.6C30.7,15,29.5,12.2,27.4,10.1z M23.8,24.3c-0.6,0.1-1.3,0.1-2.1-0.1c-3-1-4.6-1.8-7.7-5.8 c-1.6-2.2-2-4.2-0.2-6.2c0.4-0.4,0.9-0.4,1.5-0.4c0.2,0,0.5-0.1,0.8,0.6c0.3,0.7,1,2.3,1,2.5c0.1,0.2,0.1,0.4,0,0.6 c-0.6,1.2-1.3,1.3-1,1.8c0.2,0.3,0.9,1.4,1.9,2.3c1.3,1.1,2.4,1.5,2.7,1.7c0.3,0.2,0.5,0.1,0.7-0.1s0.8-1,1.1-1.3 c0.3-0.5,0.6-0.3,3.1,0.9v-0.1c0.3,0.2,0.6,0.2,0.6,0.4c0.1,0.2,0.1,0.8-0.2,1.6C25.8,23.5,24.5,24.2,23.8,24.3z"></path> </svg> 