<?xml version="1.0" encoding="UTF-8"?> <!-- Generator: Adobe Illustrator 24.3.0, SVG Export Plug-In . SVG Version: 6.00 Build 0) --> <svg xmlns="http://www.w3.org/2000/svg" xmlns:xlink="http://www.w3.org/1999/xlink" id="Layer_1" x="0px" y="0px" viewBox="0 0 36.4 36.8" style="enable-background:new 0 0 36.4 36.8;" xml:space="preserve"> <style type="text/css"> .st0{fill-rule:evenodd;clip-rule:evenodd;fill:url(#SVGID_1_);} </style> <linearGradient id="SVGID_1_" gradientUnits="userSpaceOnUse" x1="5.1" y1="19.3" x2="30.951" y2="19.3"> <stop offset="0" style="stop-color:#FF7EBB"></stop> <stop offset="1" style="stop-color:#FF3266"></stop> </linearGradient> <path class="st0" d="M26.7,20.5c-0.4-0.6-0.3-0.8,0-1.3c0,0,3.5-5.1,3.8-6.8l0,0c0.2-0.6,0-1.1-0.9-1.1h-2.8c-0.7,0-1.1,0.4-1.2,0.8 c0,0-1.4,3.7-3.5,6c-0.7,0.7-1,0.9-1.3,0.9c-0.2,0-0.5-0.2-0.5-0.8v-5.8c0-0.7-0.2-1.1-0.8-1.1H15c-0.5,0-0.7,0.4-0.7,0.7 c0,0.7,1,0.9,1.1,2.9v4.3c0,1-0.2,1.1-0.5,1.1c-1,0-3.3-3.7-4.7-7.9c-0.3-0.8-0.6-1.1-1.3-1.1H6.1c-0.8,0-1,0.4-1,0.8 c0,0.8,1,4.7,4.5,9.8c2.4,3.5,5.7,5.4,8.7,5.4c1.8,0,2-0.4,2-1.1c0-3.3-0.2-3.7,0.7-3.7c0.4,0,1.1,0.2,2.8,1.9 c1.9,2,2.2,2.9,3.3,2.9h2.8c0.8,0,1.2-0.4,1-1.3C30.5,24.3,26.8,20.7,26.7,20.5z"></path> </svg> 