<?xml version="1.0" encoding="UTF-8"?> <!-- Generator: Adobe Illustrator 24.3.0, SVG Export Plug-In . SVG Version: 6.00 Build 0) --> <svg xmlns="http://www.w3.org/2000/svg" xmlns:xlink="http://www.w3.org/1999/xlink" id="Layer_1" x="0px" y="0px" viewBox="0 0 36.4 36.8" style="enable-background:new 0 0 36.4 36.8;" xml:space="preserve"> <style type="text/css"> .st0{fill:url(#SVGID_1_);} .st1{fill:url(#SVGID_2_);} .st2{fill:url(#SVGID_3_);} </style> <g> <linearGradient id="SVGID_1_" gradientUnits="userSpaceOnUse" x1="11.9" y1="18.4" x2="24.5" y2="18.4"> <stop offset="0" style="stop-color:#FF7EBB"></stop> <stop offset="1" style="stop-color:#FF3266"></stop> </linearGradient> <path class="st0" d="M18.2,12.1c-3.5,0-6.3,2.8-6.3,6.3s2.8,6.3,6.3,6.3s6.3-2.8,6.3-6.3S21.7,12.1,18.2,12.1z M18.2,22.5 c-2.3,0-4.1-1.8-4.1-4.1c0-2.3,1.8-4.1,4.1-4.1s4.1,1.8,4.1,4.1C22.3,20.7,20.5,22.5,18.2,22.5z"></path> <linearGradient id="SVGID_2_" gradientUnits="userSpaceOnUse" x1="5.988" y1="18.4185" x2="30.5" y2="18.4185"> <stop offset="0" style="stop-color:#FF7EBB"></stop> <stop offset="1" style="stop-color:#FF3266"></stop> </linearGradient> <path class="st1" d="M30.4,13.3c-0.2-4.3-2.5-6.9-7.1-7.1c-2.3-0.1-7.8-0.1-10.1,0c-2,0.1-3.7,0.6-5.1,2C5.7,10.6,6,13.7,6,18.4 c0,4.8-0.3,7.9,2.1,10.2c2.4,2.4,5.6,2.1,10.2,2.1c4.7,0,6.4,0,8-0.6c2.3-0.9,4-2.9,4.2-6.6C30.5,21.2,30.5,15.6,30.4,13.3z M26.8,27c-1.5,1.5-3.7,1.4-8.6,1.4c-5.1,0-7.2,0.1-8.6-1.4c-1.7-1.7-1.4-4.5-1.4-8.6c0-5.6-0.6-9.7,5.1-10c1.3,0,1.7-0.1,5-0.1 c5.4,0,9.7-0.6,10,5.1c0.1,1.3,0.1,1.7,0.1,5C28.2,23.4,28.3,25.5,26.8,27z"></path> <linearGradient id="SVGID_3_" gradientUnits="userSpaceOnUse" x1="23.2" y1="11.9" x2="26.2" y2="11.9"> <stop offset="0" style="stop-color:#FF7EBB"></stop> <stop offset="1" style="stop-color:#FF3266"></stop> </linearGradient> <circle class="st2" cx="24.7" cy="11.9" r="1.5"></circle> </g> </svg> 